<svg width="13" height="13" viewBox="0 0 13 13" fill="none" xmlns="http://www.w3.org/2000/svg">
<path fill-rule="evenodd" clip-rule="evenodd" d="M1.33737 3.77487C1.37511 3.73704 1.41994 3.70702 1.46929 3.68654C1.51865 3.66606 1.57156 3.65552 1.62499 3.65552C1.67843 3.65552 1.73134 3.66606 1.7807 3.68654C1.83005 3.70702 1.87488 3.73704 1.91262 3.77487L6.49999 8.36306L11.0874 3.77487C11.1251 3.7371 11.17 3.70714 11.2193 3.68669C11.2687 3.66625 11.3216 3.65573 11.375 3.65573C11.4284 3.65573 11.4813 3.66625 11.5307 3.68669C11.58 3.70714 11.6248 3.7371 11.6626 3.77487C11.7004 3.81264 11.7304 3.85748 11.7508 3.90683C11.7712 3.95618 11.7818 4.00908 11.7818 4.06249C11.7818 4.11591 11.7712 4.1688 11.7508 4.21816C11.7304 4.26751 11.7004 4.31235 11.6626 4.35012L6.78762 9.22512C6.74988 9.26295 6.70505 9.29297 6.6557 9.31345C6.60634 9.33393 6.55343 9.34447 6.49999 9.34447C6.44656 9.34447 6.39365 9.33393 6.34429 9.31345C6.29494 9.29297 6.25011 9.26295 6.21237 9.22512L1.33737 4.35012C1.29954 4.31238 1.26952 4.26755 1.24904 4.2182C1.22856 4.16884 1.21802 4.11593 1.21802 4.06249C1.21802 4.00906 1.22856 3.95615 1.24904 3.90679C1.26952 3.85744 1.29954 3.81261 1.33737 3.77487Z" fill="black"/>
</svg>
