<svg width="9" height="12" viewBox="0 0 9 12" fill="none" xmlns="http://www.w3.org/2000/svg">
<path d="M4.04736 0C1.81223 0 0 1.61357 0 3.60448C0 4.16205 0.14229 4.69076 0.396439 5.16174C0.410655 5.1885 4.04736 11.5343 4.04736 11.5343L7.65443 5.24058C7.93584 4.7499 8.09473 4.19373 8.09473 3.60448C8.09473 1.61357 6.2829 0 4.04736 0ZM4.04736 5.76717C2.70627 5.76717 1.61895 4.79847 1.61895 3.60448C1.61895 2.4105 2.70627 1.44179 4.04736 1.44179C5.38805 1.44179 6.47578 2.4105 6.47578 3.60448C6.47578 4.79847 5.38805 5.76717 4.04736 5.76717Z" fill="black" fill-opacity="0.5"/>
</svg>
