<svg width="11" height="15" viewBox="0 0 11 15" fill="none" xmlns="http://www.w3.org/2000/svg">
<path d="M5.49205 0.9039C2.73077 0.9039 0.491943 2.83482 0.491943 5.2173C0.491943 5.88453 0.667728 6.51721 0.981703 7.08082C0.999266 7.11284 5.49205 14.7068 5.49205 14.7068L9.94821 7.17517C10.2959 6.58799 10.4922 5.92243 10.4922 5.2173C10.4922 2.83482 8.25383 0.9039 5.49205 0.9039ZM5.49205 7.80533C3.83526 7.80533 2.49199 6.64611 2.49199 5.2173C2.49199 3.78848 3.83526 2.62926 5.49205 2.62926C7.14834 2.62926 8.49211 3.78848 8.49211 5.2173C8.49211 6.64611 7.14834 7.80533 5.49205 7.80533Z" fill="black"/>
</svg>
