<svg width="37" height="37" viewBox="0 0 37 37" fill="none" xmlns="http://www.w3.org/2000/svg">
<path d="M10.7913 31.8539V29.2917C10.7913 28.4739 11.1162 27.6897 11.6944 27.1114C12.2727 26.5332 13.0569 26.2083 13.8747 26.2083H23.1247C23.9424 26.2083 24.7267 26.5332 25.3049 27.1114C25.8832 27.6897 26.208 28.4739 26.208 29.2917V31.8539M33.9163 18.5C33.9163 27.0144 27.0141 33.9167 18.4997 33.9167C9.98528 33.9167 3.08301 27.0144 3.08301 18.5C3.08301 9.98561 9.98528 3.08333 18.4997 3.08333C27.0141 3.08333 33.9163 9.98561 33.9163 18.5ZM23.1247 15.4167C23.1247 17.971 21.054 20.0417 18.4997 20.0417C15.9454 20.0417 13.8747 17.971 13.8747 15.4167C13.8747 12.8623 15.9454 10.7917 18.4997 10.7917C21.054 10.7917 23.1247 12.8623 23.1247 15.4167Z" stroke="black" stroke-opacity="0.5" stroke-linecap="round" stroke-linejoin="round"/>
</svg>
